<?xml version="1.0" encoding="utf-8" standalone="no"?>
<!DOCTYPE svg PUBLIC "-//W3C//DTD SVG 1.1//EN"
  "http://www.w3.org/Graphics/SVG/1.1/DTD/svg11.dtd">
<svg xmlns:xlink="http://www.w3.org/1999/xlink" width="1144.866406pt" height="568.995312pt" viewBox="0 0 1144.866406 568.995312" xmlns="http://www.w3.org/2000/svg" version="1.1">
 <metadata>
  <rdf:RDF xmlns:dc="http://purl.org/dc/elements/1.1/" xmlns:cc="http://creativecommons.org/ns#" xmlns:rdf="http://www.w3.org/1999/02/22-rdf-syntax-ns#">
   <cc:Work>
    <dc:type rdf:resource="http://purl.org/dc/dcmitype/StillImage"/>
    <dc:date>2022-06-10T11:45:31.457095</dc:date>
    <dc:format>image/svg+xml</dc:format>
    <dc:creator>
     <cc:Agent>
      <dc:title>Matplotlib v3.5.2, https://matplotlib.org/</dc:title>
     </cc:Agent>
    </dc:creator>
   </cc:Work>
  </rdf:RDF>
 </metadata>
 <defs>
  <style type="text/css">*{stroke-linejoin: round; stroke-linecap: butt}</style>
 </defs>
 <g id="figure_1">
  <g id="patch_1">
   <path d="M 0 568.995312 
L 1144.866406 568.995312 
L 1144.866406 0 
L 0 0 
L 0 568.995312 
z
" style="fill: none"/>
  </g>
  <g id="axes_1">
   <g id="patch_2">
    <path d="M 66.266406 534.1 
L 1137.666406 534.1 
L 1137.666406 7.2 
L 66.266406 7.2 
z
" style="fill: #eeeeee"/>
   </g>
   <g id="matplotlib.axis_1">
    <g id="xtick_1">
     <g id="line2d_1">
      <path d="M 114.966406 534.1 
L 114.966406 7.2 
" clip-path="url(#p2f7001422a)" style="fill: none; stroke: #ffffff; stroke-width: 0.8; stroke-linecap: round"/>
     </g>
     <g id="line2d_2"/>
    </g>
    <g id="xtick_2">
     <g id="line2d_3">
      <path d="M 313.068101 534.1 
L 313.068101 7.2 
" clip-path="url(#p2f7001422a)" style="fill: none; stroke: #ffffff; stroke-width: 0.8; stroke-linecap: round"/>
     </g>
     <g id="line2d_4"/>
     <g id="text_1">
      <!-- 1 AN -->
      <g style="fill: #d8dee9" transform="translate(283.239976 556.596094)scale(0.25 -0.25)">
       <defs>
        <path id="DejaVuSans-31" d="M 794 531 
L 1825 531 
L 1825 4091 
L 703 3866 
L 703 4441 
L 1819 4666 
L 2450 4666 
L 2450 531 
L 3481 531 
L 3481 0 
L 794 0 
L 794 531 
z
" transform="scale(0.015625)"/>
        <path id="DejaVuSans-20" transform="scale(0.015625)"/>
        <path id="DejaVuSans-41" d="M 2188 4044 
L 1331 1722 
L 3047 1722 
L 2188 4044 
z
M 1831 4666 
L 2547 4666 
L 4325 0 
L 3669 0 
L 3244 1197 
L 1141 1197 
L 716 0 
L 50 0 
L 1831 4666 
z
" transform="scale(0.015625)"/>
        <path id="DejaVuSans-4e" d="M 628 4666 
L 1478 4666 
L 3547 763 
L 3547 4666 
L 4159 4666 
L 4159 0 
L 3309 0 
L 1241 3903 
L 1241 0 
L 628 0 
L 628 4666 
z
" transform="scale(0.015625)"/>
       </defs>
       <use xlink:href="#DejaVuSans-31"/>
       <use xlink:href="#DejaVuSans-20" x="63.623047"/>
       <use xlink:href="#DejaVuSans-41" x="95.410156"/>
       <use xlink:href="#DejaVuSans-4e" x="163.818359"/>
      </g>
     </g>
    </g>
    <g id="xtick_3">
     <g id="line2d_5">
      <path d="M 511.169796 534.1 
L 511.169796 7.2 
" clip-path="url(#p2f7001422a)" style="fill: none; stroke: #ffffff; stroke-width: 0.8; stroke-linecap: round"/>
     </g>
     <g id="line2d_6"/>
     <g id="text_2">
      <!-- 2 -->
      <g style="fill: #d8dee9" transform="translate(503.216671 556.596094)scale(0.25 -0.25)">
       <defs>
        <path id="DejaVuSans-32" d="M 1228 531 
L 3431 531 
L 3431 0 
L 469 0 
L 469 531 
Q 828 903 1448 1529 
Q 2069 2156 2228 2338 
Q 2531 2678 2651 2914 
Q 2772 3150 2772 3378 
Q 2772 3750 2511 3984 
Q 2250 4219 1831 4219 
Q 1534 4219 1204 4116 
Q 875 4013 500 3803 
L 500 4441 
Q 881 4594 1212 4672 
Q 1544 4750 1819 4750 
Q 2544 4750 2975 4387 
Q 3406 4025 3406 3419 
Q 3406 3131 3298 2873 
Q 3191 2616 2906 2266 
Q 2828 2175 2409 1742 
Q 1991 1309 1228 531 
z
" transform="scale(0.015625)"/>
       </defs>
       <use xlink:href="#DejaVuSans-32"/>
      </g>
     </g>
    </g>
    <g id="xtick_4">
     <g id="line2d_7">
      <path d="M 709.271491 534.1 
L 709.271491 7.2 
" clip-path="url(#p2f7001422a)" style="fill: none; stroke: #ffffff; stroke-width: 0.8; stroke-linecap: round"/>
     </g>
     <g id="line2d_8"/>
     <g id="text_3">
      <!-- 3 -->
      <g style="fill: #d8dee9" transform="translate(701.318366 556.596094)scale(0.25 -0.25)">
       <defs>
        <path id="DejaVuSans-33" d="M 2597 2516 
Q 3050 2419 3304 2112 
Q 3559 1806 3559 1356 
Q 3559 666 3084 287 
Q 2609 -91 1734 -91 
Q 1441 -91 1130 -33 
Q 819 25 488 141 
L 488 750 
Q 750 597 1062 519 
Q 1375 441 1716 441 
Q 2309 441 2620 675 
Q 2931 909 2931 1356 
Q 2931 1769 2642 2001 
Q 2353 2234 1838 2234 
L 1294 2234 
L 1294 2753 
L 1863 2753 
Q 2328 2753 2575 2939 
Q 2822 3125 2822 3475 
Q 2822 3834 2567 4026 
Q 2313 4219 1838 4219 
Q 1578 4219 1281 4162 
Q 984 4106 628 3988 
L 628 4550 
Q 988 4650 1302 4700 
Q 1616 4750 1894 4750 
Q 2613 4750 3031 4423 
Q 3450 4097 3450 3541 
Q 3450 3153 3228 2886 
Q 3006 2619 2597 2516 
z
" transform="scale(0.015625)"/>
       </defs>
       <use xlink:href="#DejaVuSans-33"/>
      </g>
     </g>
    </g>
    <g id="xtick_5">
     <g id="line2d_9">
      <path d="M 907.373186 534.1 
L 907.373186 7.2 
" clip-path="url(#p2f7001422a)" style="fill: none; stroke: #ffffff; stroke-width: 0.8; stroke-linecap: round"/>
     </g>
     <g id="line2d_10"/>
     <g id="text_4">
      <!-- 4 -->
      <g style="fill: #d8dee9" transform="translate(899.420061 556.596094)scale(0.25 -0.25)">
       <defs>
        <path id="DejaVuSans-34" d="M 2419 4116 
L 825 1625 
L 2419 1625 
L 2419 4116 
z
M 2253 4666 
L 3047 4666 
L 3047 1625 
L 3713 1625 
L 3713 1100 
L 3047 1100 
L 3047 0 
L 2419 0 
L 2419 1100 
L 313 1100 
L 313 1709 
L 2253 4666 
z
" transform="scale(0.015625)"/>
       </defs>
       <use xlink:href="#DejaVuSans-34"/>
      </g>
     </g>
    </g>
    <g id="xtick_6">
     <g id="line2d_11">
      <path d="M 1105.474881 534.1 
L 1105.474881 7.2 
" clip-path="url(#p2f7001422a)" style="fill: none; stroke: #ffffff; stroke-width: 0.8; stroke-linecap: round"/>
     </g>
     <g id="line2d_12"/>
     <g id="text_5">
      <!-- 5 -->
      <g style="fill: #d8dee9" transform="translate(1097.521756 556.596094)scale(0.25 -0.25)">
       <defs>
        <path id="DejaVuSans-35" d="M 691 4666 
L 3169 4666 
L 3169 4134 
L 1269 4134 
L 1269 2991 
Q 1406 3038 1543 3061 
Q 1681 3084 1819 3084 
Q 2600 3084 3056 2656 
Q 3513 2228 3513 1497 
Q 3513 744 3044 326 
Q 2575 -91 1722 -91 
Q 1428 -91 1123 -41 
Q 819 9 494 109 
L 494 744 
Q 775 591 1075 516 
Q 1375 441 1709 441 
Q 2250 441 2565 725 
Q 2881 1009 2881 1497 
Q 2881 1984 2565 2268 
Q 2250 2553 1709 2553 
Q 1456 2553 1204 2497 
Q 953 2441 691 2322 
L 691 4666 
z
" transform="scale(0.015625)"/>
       </defs>
       <use xlink:href="#DejaVuSans-35"/>
      </g>
     </g>
    </g>
   </g>
   <g id="matplotlib.axis_2">
    <g id="ytick_1">
     <g id="line2d_13">
      <path d="M 66.266406 383.557143 
L 1137.666406 383.557143 
" clip-path="url(#p2f7001422a)" style="fill: none; stroke: #ffffff; stroke-width: 0.8; stroke-linecap: round"/>
     </g>
     <g id="line2d_14"/>
     <g id="text_6">
      <!-- 30% -->
      <g style="fill: #d8dee9" transform="translate(7.2 393.05519)scale(0.25 -0.25)">
       <defs>
        <path id="DejaVuSans-30" d="M 2034 4250 
Q 1547 4250 1301 3770 
Q 1056 3291 1056 2328 
Q 1056 1369 1301 889 
Q 1547 409 2034 409 
Q 2525 409 2770 889 
Q 3016 1369 3016 2328 
Q 3016 3291 2770 3770 
Q 2525 4250 2034 4250 
z
M 2034 4750 
Q 2819 4750 3233 4129 
Q 3647 3509 3647 2328 
Q 3647 1150 3233 529 
Q 2819 -91 2034 -91 
Q 1250 -91 836 529 
Q 422 1150 422 2328 
Q 422 3509 836 4129 
Q 1250 4750 2034 4750 
z
" transform="scale(0.015625)"/>
        <path id="DejaVuSans-25" d="M 4653 2053 
Q 4381 2053 4226 1822 
Q 4072 1591 4072 1178 
Q 4072 772 4226 539 
Q 4381 306 4653 306 
Q 4919 306 5073 539 
Q 5228 772 5228 1178 
Q 5228 1588 5073 1820 
Q 4919 2053 4653 2053 
z
M 4653 2450 
Q 5147 2450 5437 2106 
Q 5728 1763 5728 1178 
Q 5728 594 5436 251 
Q 5144 -91 4653 -91 
Q 4153 -91 3862 251 
Q 3572 594 3572 1178 
Q 3572 1766 3864 2108 
Q 4156 2450 4653 2450 
z
M 1428 4353 
Q 1159 4353 1004 4120 
Q 850 3888 850 3481 
Q 850 3069 1003 2837 
Q 1156 2606 1428 2606 
Q 1700 2606 1854 2837 
Q 2009 3069 2009 3481 
Q 2009 3884 1853 4118 
Q 1697 4353 1428 4353 
z
M 4250 4750 
L 4750 4750 
L 1831 -91 
L 1331 -91 
L 4250 4750 
z
M 1428 4750 
Q 1922 4750 2215 4408 
Q 2509 4066 2509 3481 
Q 2509 2891 2217 2550 
Q 1925 2209 1428 2209 
Q 931 2209 642 2551 
Q 353 2894 353 3481 
Q 353 4063 643 4406 
Q 934 4750 1428 4750 
z
" transform="scale(0.015625)"/>
       </defs>
       <use xlink:href="#DejaVuSans-33"/>
       <use xlink:href="#DejaVuSans-30" x="63.623047"/>
       <use xlink:href="#DejaVuSans-25" x="127.246094"/>
      </g>
     </g>
    </g>
    <g id="ytick_2">
     <g id="line2d_15">
      <path d="M 66.266406 233.014286 
L 1137.666406 233.014286 
" clip-path="url(#p2f7001422a)" style="fill: none; stroke: #ffffff; stroke-width: 0.8; stroke-linecap: round"/>
     </g>
     <g id="line2d_16"/>
     <g id="text_7">
      <!-- 50% -->
      <g style="fill: #3b4252" transform="translate(7.2 242.512333)scale(0.25 -0.25)">
       <use xlink:href="#DejaVuSans-35"/>
       <use xlink:href="#DejaVuSans-30" x="63.623047"/>
       <use xlink:href="#DejaVuSans-25" x="127.246094"/>
      </g>
     </g>
    </g>
    <g id="ytick_3">
     <g id="line2d_17">
      <path d="M 66.266406 82.471429 
L 1137.666406 82.471429 
" clip-path="url(#p2f7001422a)" style="fill: none; stroke: #ffffff; stroke-width: 0.8; stroke-linecap: round"/>
     </g>
     <g id="line2d_18"/>
     <g id="text_8">
      <!-- 70% -->
      <g style="fill: #d8dee9" transform="translate(7.2 91.969475)scale(0.25 -0.25)">
       <defs>
        <path id="DejaVuSans-37" d="M 525 4666 
L 3525 4666 
L 3525 4397 
L 1831 0 
L 1172 0 
L 2766 4134 
L 525 4134 
L 525 4666 
z
" transform="scale(0.015625)"/>
       </defs>
       <use xlink:href="#DejaVuSans-37"/>
       <use xlink:href="#DejaVuSans-30" x="63.623047"/>
       <use xlink:href="#DejaVuSans-25" x="127.246094"/>
      </g>
     </g>
    </g>
   </g>
   <g id="line2d_19">
    <path d="M 114.966406 142.196209 
L 131.474881 126.038232 
L 147.983355 124.152574 
L 164.49183 135.990366 
L 181.000305 164.840271 
L 197.508779 186.202211 
L 214.017254 206.556194 
L 230.525728 228.779762 
L 247.034203 271.288591 
L 263.542677 320.443151 
L 280.051152 322.83942 
L 296.559627 342.720038 
L 313.068101 337.425488 
L 329.576576 341.261534 
L 346.08505 339.056626 
L 362.593525 314.319425 
L 379.101999 310.251921 
L 395.610474 301.757089 
L 412.118949 288.569055 
L 428.627423 285.57912 
L 445.135898 291.276345 
L 461.644372 320.946443 
L 478.152847 321.287328 
L 494.661322 319.998459 
L 511.169796 303.285328 
L 527.678271 291.365981 
L 544.186745 292.691659 
L 560.69522 286.918071 
L 577.203694 295.77186 
L 593.712169 311.888434 
L 610.220644 329.67854 
L 626.729118 332.864717 
L 643.237593 327.102309 
L 659.746067 349.042667 
L 676.254542 356.22187 
L 692.763016 362.738563 
L 709.271491 364.674824 
L 725.779966 376.386462 
L 742.28844 369.104958 
L 758.796915 363.04237 
L 775.305389 380.807008 
L 791.813864 393.967102 
L 808.322338 377.740207 
L 824.830813 382.451524 
L 841.339288 386.766142 
L 857.847762 390.812933 
L 874.356237 397.159404 
L 890.864711 407.546434 
L 907.373186 393.178033 
L 923.88166 386.415664 
L 940.390135 366.545553 
L 956.89861 373.396065 
L 973.407084 378.283053 
L 989.915559 373.244118 
L 1006.424033 360.248953 
L 1022.932508 359.141494 
L 1039.440983 374.339009 
L 1055.949457 369.823861 
L 1072.457932 346.424069 
L 1088.966406 335.82821 
" clip-path="url(#p2f7001422a)" style="fill: none; stroke: #3b4252; stroke-width: 3; stroke-linecap: round"/>
   </g>
   <g id="line2d_20">
    <path d="M 114.966406 186.607549 
L 131.474881 184.049333 
L 147.983355 242.470284 
L 164.49183 293.482565 
L 181.000305 301.295132 
L 197.508779 300.422383 
L 214.017254 281.157905 
L 230.525728 255.953661 
L 247.034203 263.895675 
L 263.542677 292.526762 
L 280.051152 293.708318 
L 296.559627 291.907015 
L 313.068101 298.031328 
L 329.576576 316.201308 
L 346.08505 340.651763 
L 362.593525 356.398033 
L 379.101999 382.959719 
L 395.610474 394.901028 
L 412.118949 410.859122 
L 428.627423 415.433149 
L 445.135898 399.655127 
L 461.644372 388.788584 
L 478.152847 385.124626 
L 494.661322 390.350135 
L 511.169796 380.098205 
L 527.678271 362.146494 
L 544.186745 362.219575 
L 560.69522 351.063753 
L 577.203694 349.681234 
L 593.712169 354.19622 
L 610.220644 365.942577 
L 626.729118 367.191384 
L 643.237593 359.854081 
L 659.746067 366.618912 
L 676.254542 316.136806 
L 692.763016 322.488058 
L 709.271491 331.769051 
L 725.779966 337.510288 
L 742.28844 325.420633 
L 758.796915 318.310558 
L 775.305389 328.650052 
L 791.813864 317.652404 
L 808.322338 301.905668 
L 824.830813 318.197077 
L 841.339288 315.069667 
L 857.847762 310.800802 
L 874.356237 321.237093 
L 890.864711 329.541645 
L 907.373186 315.156775 
L 923.88166 318.421774 
L 940.390135 314.835345 
L 956.89861 318.874713 
L 973.407084 317.114674 
L 989.915559 316.883411 
L 1006.424033 310.953193 
L 1022.932508 304.128449 
L 1039.440983 321.772974 
L 1055.949457 303.984425 
L 1072.457932 287.314336 
L 1088.966406 301.31177 
" clip-path="url(#p2f7001422a)" style="fill: none; stroke: #81a1c1; stroke-width: 3; stroke-linecap: round"/>
   </g>
   <g id="line2d_21">
    <path d="M 114.966406 534.1 
L 114.966406 7.2 
" clip-path="url(#p2f7001422a)" style="fill: none; stroke: #808080; stroke-opacity: 0.1; stroke-width: 1.5; stroke-linecap: round"/>
   </g>
   <g id="line2d_22">
    <path d="M 296.559627 534.1 
L 296.559627 7.2 
" clip-path="url(#p2f7001422a)" style="fill: none; stroke: #808080; stroke-opacity: 0.1; stroke-width: 1.5; stroke-linecap: round"/>
   </g>
   <g id="line2d_23">
    <path d="M 494.661322 534.1 
L 494.661322 7.2 
" clip-path="url(#p2f7001422a)" style="fill: none; stroke: #808080; stroke-opacity: 0.1; stroke-width: 1.5; stroke-linecap: round"/>
   </g>
   <g id="line2d_24">
    <path d="M 692.763016 534.1 
L 692.763016 7.2 
" clip-path="url(#p2f7001422a)" style="fill: none; stroke: #808080; stroke-opacity: 0.1; stroke-width: 1.5; stroke-linecap: round"/>
   </g>
   <g id="line2d_25">
    <path d="M 890.864711 534.1 
L 890.864711 7.2 
" clip-path="url(#p2f7001422a)" style="fill: none; stroke: #808080; stroke-opacity: 0.1; stroke-width: 1.5; stroke-linecap: round"/>
   </g>
   <g id="line2d_26">
    <path d="M 1088.966406 534.1 
L 1088.966406 7.2 
" clip-path="url(#p2f7001422a)" style="fill: none; stroke: #808080; stroke-opacity: 0.1; stroke-width: 1.5; stroke-linecap: round"/>
   </g>
   <g id="line2d_27">
    <path d="M 66.266406 383.557143 
L 1137.666406 383.557143 
" clip-path="url(#p2f7001422a)" style="fill: none; stroke: #808080; stroke-opacity: 0.1; stroke-width: 1.5; stroke-linecap: round"/>
   </g>
   <g id="line2d_28">
    <path d="M 66.266406 233.014286 
L 1137.666406 233.014286 
" clip-path="url(#p2f7001422a)" style="fill: none; stroke: #000000; stroke-width: 0.7; stroke-linecap: round"/>
   </g>
   <g id="line2d_29">
    <path d="M 66.266406 82.471429 
L 1137.666406 82.471429 
" clip-path="url(#p2f7001422a)" style="fill: none; stroke: #808080; stroke-opacity: 0.1; stroke-width: 1.5; stroke-linecap: round"/>
   </g>
  </g>
 </g>
 <defs>
  <clipPath id="p2f7001422a">
   <rect x="66.266406" y="7.2" width="1071.4" height="526.9"/>
  </clipPath>
 </defs>
</svg>
