<?xml version="1.0" encoding="utf-8" standalone="no"?>
<!DOCTYPE svg PUBLIC "-//W3C//DTD SVG 1.1//EN"
  "http://www.w3.org/Graphics/SVG/1.1/DTD/svg11.dtd">
<svg height="568.995312pt" version="1.1" viewBox="0 0 1144.866406 568.995312" width="1144.866406pt" xmlns="http://www.w3.org/2000/svg" xmlns:xlink="http://www.w3.org/1999/xlink">
 <metadata>
  <rdf:RDF xmlns:cc="http://creativecommons.org/ns#" xmlns:dc="http://purl.org/dc/elements/1.1/" xmlns:rdf="http://www.w3.org/1999/02/22-rdf-syntax-ns#">
   <cc:Work>
    <dc:type rdf:resource="http://purl.org/dc/dcmitype/StillImage"/>
    <dc:date>2021-05-24T08:47:03.325084</dc:date>
    <dc:format>image/svg+xml</dc:format>
    <dc:creator>
     <cc:Agent>
      <dc:title>Matplotlib v3.4.1, https://matplotlib.org/</dc:title>
     </cc:Agent>
    </dc:creator>
   </cc:Work>
  </rdf:RDF>
 </metadata>
 <defs>
  <style type="text/css">*{stroke-linecap:butt;stroke-linejoin:round;}</style>
 </defs>
 <g id="figure_1">
  <g id="patch_1">
   <path d="M 0 568.995312 
L 1144.866406 568.995312 
L 1144.866406 0 
L 0 0 
z
" style="fill:none;"/>
  </g>
  <g id="axes_1">
   <g id="patch_2">
    <path d="M 69.766406 530.6 
L 1137.666406 530.6 
L 1137.666406 7.2 
L 69.766406 7.2 
z
" style="fill:#ffffff;"/>
   </g>
   <g id="matplotlib.axis_1">
    <g id="xtick_1">
     <g id="line2d_1">
      <defs>
       <path d="M 0 0 
L 0 3.5 
" id="m9ca7430c42" style="stroke:#000000;stroke-width:0.8;"/>
      </defs>
      <g>
       <use style="stroke:#000000;stroke-width:0.8;" x="118.307315" xlink:href="#m9ca7430c42" y="530.6"/>
      </g>
     </g>
    </g>
    <g id="xtick_2">
     <g id="line2d_2">
      <g>
       <use style="stroke:#000000;stroke-width:0.8;" x="315.761861" xlink:href="#m9ca7430c42" y="530.6"/>
      </g>
     </g>
     <g id="text_1">
      <!-- 1 AN -->
      <g style="fill:#4c566a;" transform="translate(285.933736 556.596094)scale(0.25 -0.25)">
       <defs>
        <path d="M 794 531 
L 1825 531 
L 1825 4091 
L 703 3866 
L 703 4441 
L 1819 4666 
L 2450 4666 
L 2450 531 
L 3481 531 
L 3481 0 
L 794 0 
L 794 531 
z
" id="DejaVuSans-31" transform="scale(0.015625)"/>
        <path id="DejaVuSans-20" transform="scale(0.015625)"/>
        <path d="M 2188 4044 
L 1331 1722 
L 3047 1722 
L 2188 4044 
z
M 1831 4666 
L 2547 4666 
L 4325 0 
L 3669 0 
L 3244 1197 
L 1141 1197 
L 716 0 
L 50 0 
L 1831 4666 
z
" id="DejaVuSans-41" transform="scale(0.015625)"/>
        <path d="M 628 4666 
L 1478 4666 
L 3547 763 
L 3547 4666 
L 4159 4666 
L 4159 0 
L 3309 0 
L 1241 3903 
L 1241 0 
L 628 0 
L 628 4666 
z
" id="DejaVuSans-4e" transform="scale(0.015625)"/>
       </defs>
       <use xlink:href="#DejaVuSans-31"/>
       <use x="63.623047" xlink:href="#DejaVuSans-20"/>
       <use x="95.410156" xlink:href="#DejaVuSans-41"/>
       <use x="163.818359" xlink:href="#DejaVuSans-4e"/>
      </g>
     </g>
    </g>
    <g id="xtick_3">
     <g id="line2d_3">
      <g>
       <use style="stroke:#000000;stroke-width:0.8;" x="513.216406" xlink:href="#m9ca7430c42" y="530.6"/>
      </g>
     </g>
     <g id="text_2">
      <!-- 2 -->
      <g style="fill:#4c566a;" transform="translate(505.263281 556.596094)scale(0.25 -0.25)">
       <defs>
        <path d="M 1228 531 
L 3431 531 
L 3431 0 
L 469 0 
L 469 531 
Q 828 903 1448 1529 
Q 2069 2156 2228 2338 
Q 2531 2678 2651 2914 
Q 2772 3150 2772 3378 
Q 2772 3750 2511 3984 
Q 2250 4219 1831 4219 
Q 1534 4219 1204 4116 
Q 875 4013 500 3803 
L 500 4441 
Q 881 4594 1212 4672 
Q 1544 4750 1819 4750 
Q 2544 4750 2975 4387 
Q 3406 4025 3406 3419 
Q 3406 3131 3298 2873 
Q 3191 2616 2906 2266 
Q 2828 2175 2409 1742 
Q 1991 1309 1228 531 
z
" id="DejaVuSans-32" transform="scale(0.015625)"/>
       </defs>
       <use xlink:href="#DejaVuSans-32"/>
      </g>
     </g>
    </g>
    <g id="xtick_4">
     <g id="line2d_4">
      <g>
       <use style="stroke:#000000;stroke-width:0.8;" x="710.670952" xlink:href="#m9ca7430c42" y="530.6"/>
      </g>
     </g>
     <g id="text_3">
      <!-- 3 -->
      <g style="fill:#4c566a;" transform="translate(702.717827 556.596094)scale(0.25 -0.25)">
       <defs>
        <path d="M 2597 2516 
Q 3050 2419 3304 2112 
Q 3559 1806 3559 1356 
Q 3559 666 3084 287 
Q 2609 -91 1734 -91 
Q 1441 -91 1130 -33 
Q 819 25 488 141 
L 488 750 
Q 750 597 1062 519 
Q 1375 441 1716 441 
Q 2309 441 2620 675 
Q 2931 909 2931 1356 
Q 2931 1769 2642 2001 
Q 2353 2234 1838 2234 
L 1294 2234 
L 1294 2753 
L 1863 2753 
Q 2328 2753 2575 2939 
Q 2822 3125 2822 3475 
Q 2822 3834 2567 4026 
Q 2313 4219 1838 4219 
Q 1578 4219 1281 4162 
Q 984 4106 628 3988 
L 628 4550 
Q 988 4650 1302 4700 
Q 1616 4750 1894 4750 
Q 2613 4750 3031 4423 
Q 3450 4097 3450 3541 
Q 3450 3153 3228 2886 
Q 3006 2619 2597 2516 
z
" id="DejaVuSans-33" transform="scale(0.015625)"/>
       </defs>
       <use xlink:href="#DejaVuSans-33"/>
      </g>
     </g>
    </g>
    <g id="xtick_5">
     <g id="line2d_5">
      <g>
       <use style="stroke:#000000;stroke-width:0.8;" x="908.125497" xlink:href="#m9ca7430c42" y="530.6"/>
      </g>
     </g>
     <g id="text_4">
      <!-- 4 -->
      <g style="fill:#4c566a;" transform="translate(900.172372 556.596094)scale(0.25 -0.25)">
       <defs>
        <path d="M 2419 4116 
L 825 1625 
L 2419 1625 
L 2419 4116 
z
M 2253 4666 
L 3047 4666 
L 3047 1625 
L 3713 1625 
L 3713 1100 
L 3047 1100 
L 3047 0 
L 2419 0 
L 2419 1100 
L 313 1100 
L 313 1709 
L 2253 4666 
z
" id="DejaVuSans-34" transform="scale(0.015625)"/>
       </defs>
       <use xlink:href="#DejaVuSans-34"/>
      </g>
     </g>
    </g>
    <g id="xtick_6">
     <g id="line2d_6">
      <g>
       <use style="stroke:#000000;stroke-width:0.8;" x="1105.580043" xlink:href="#m9ca7430c42" y="530.6"/>
      </g>
     </g>
     <g id="text_5">
      <!-- 5 -->
      <g style="fill:#4c566a;" transform="translate(1097.626918 556.596094)scale(0.25 -0.25)">
       <defs>
        <path d="M 691 4666 
L 3169 4666 
L 3169 4134 
L 1269 4134 
L 1269 2991 
Q 1406 3038 1543 3061 
Q 1681 3084 1819 3084 
Q 2600 3084 3056 2656 
Q 3513 2228 3513 1497 
Q 3513 744 3044 326 
Q 2575 -91 1722 -91 
Q 1428 -91 1123 -41 
Q 819 9 494 109 
L 494 744 
Q 775 591 1075 516 
Q 1375 441 1709 441 
Q 2250 441 2565 725 
Q 2881 1009 2881 1497 
Q 2881 1984 2565 2268 
Q 2250 2553 1709 2553 
Q 1456 2553 1204 2497 
Q 953 2441 691 2322 
L 691 4666 
z
" id="DejaVuSans-35" transform="scale(0.015625)"/>
       </defs>
       <use xlink:href="#DejaVuSans-35"/>
      </g>
     </g>
    </g>
   </g>
   <g id="matplotlib.axis_2">
    <g id="ytick_1">
     <g id="line2d_7">
      <defs>
       <path d="M 0 0 
L -3.5 0 
" id="mbba7b4b789" style="stroke:#000000;stroke-width:0.8;"/>
      </defs>
      <g>
       <use style="stroke:#000000;stroke-width:0.8;" x="69.766406" xlink:href="#mbba7b4b789" y="381.057143"/>
      </g>
     </g>
     <g id="text_6">
      <!-- 30% -->
      <g style="fill:#d8dee9;" transform="translate(7.2 390.55519)scale(0.25 -0.25)">
       <defs>
        <path d="M 2034 4250 
Q 1547 4250 1301 3770 
Q 1056 3291 1056 2328 
Q 1056 1369 1301 889 
Q 1547 409 2034 409 
Q 2525 409 2770 889 
Q 3016 1369 3016 2328 
Q 3016 3291 2770 3770 
Q 2525 4250 2034 4250 
z
M 2034 4750 
Q 2819 4750 3233 4129 
Q 3647 3509 3647 2328 
Q 3647 1150 3233 529 
Q 2819 -91 2034 -91 
Q 1250 -91 836 529 
Q 422 1150 422 2328 
Q 422 3509 836 4129 
Q 1250 4750 2034 4750 
z
" id="DejaVuSans-30" transform="scale(0.015625)"/>
        <path d="M 4653 2053 
Q 4381 2053 4226 1822 
Q 4072 1591 4072 1178 
Q 4072 772 4226 539 
Q 4381 306 4653 306 
Q 4919 306 5073 539 
Q 5228 772 5228 1178 
Q 5228 1588 5073 1820 
Q 4919 2053 4653 2053 
z
M 4653 2450 
Q 5147 2450 5437 2106 
Q 5728 1763 5728 1178 
Q 5728 594 5436 251 
Q 5144 -91 4653 -91 
Q 4153 -91 3862 251 
Q 3572 594 3572 1178 
Q 3572 1766 3864 2108 
Q 4156 2450 4653 2450 
z
M 1428 4353 
Q 1159 4353 1004 4120 
Q 850 3888 850 3481 
Q 850 3069 1003 2837 
Q 1156 2606 1428 2606 
Q 1700 2606 1854 2837 
Q 2009 3069 2009 3481 
Q 2009 3884 1853 4118 
Q 1697 4353 1428 4353 
z
M 4250 4750 
L 4750 4750 
L 1831 -91 
L 1331 -91 
L 4250 4750 
z
M 1428 4750 
Q 1922 4750 2215 4408 
Q 2509 4066 2509 3481 
Q 2509 2891 2217 2550 
Q 1925 2209 1428 2209 
Q 931 2209 642 2551 
Q 353 2894 353 3481 
Q 353 4063 643 4406 
Q 934 4750 1428 4750 
z
" id="DejaVuSans-25" transform="scale(0.015625)"/>
       </defs>
       <use xlink:href="#DejaVuSans-33"/>
       <use x="63.623047" xlink:href="#DejaVuSans-30"/>
       <use x="127.246094" xlink:href="#DejaVuSans-25"/>
      </g>
     </g>
    </g>
    <g id="ytick_2">
     <g id="line2d_8">
      <g>
       <use style="stroke:#000000;stroke-width:0.8;" x="69.766406" xlink:href="#mbba7b4b789" y="231.514286"/>
      </g>
     </g>
     <g id="text_7">
      <!-- 50% -->
      <g style="fill:#3b4252;" transform="translate(7.2 241.012333)scale(0.25 -0.25)">
       <use xlink:href="#DejaVuSans-35"/>
       <use x="63.623047" xlink:href="#DejaVuSans-30"/>
       <use x="127.246094" xlink:href="#DejaVuSans-25"/>
      </g>
     </g>
    </g>
    <g id="ytick_3">
     <g id="line2d_9">
      <g>
       <use style="stroke:#000000;stroke-width:0.8;" x="69.766406" xlink:href="#mbba7b4b789" y="81.971429"/>
      </g>
     </g>
     <g id="text_8">
      <!-- 70% -->
      <g style="fill:#d8dee9;" transform="translate(7.2 91.469475)scale(0.25 -0.25)">
       <defs>
        <path d="M 525 4666 
L 3525 4666 
L 3525 4397 
L 1831 0 
L 1172 0 
L 2766 4134 
L 525 4134 
L 525 4666 
z
" id="DejaVuSans-37" transform="scale(0.015625)"/>
       </defs>
       <use xlink:href="#DejaVuSans-37"/>
       <use x="63.623047" xlink:href="#DejaVuSans-30"/>
       <use x="127.246094" xlink:href="#DejaVuSans-25"/>
      </g>
     </g>
    </g>
   </g>
   <g id="line2d_10">
    <path clip-path="url(#p726e8bb197)" d="M 118.307315 184.412394 
L 134.761861 186.077167 
L 151.216406 209.651241 
L 167.670952 243.254236 
L 184.125497 280.847375 
L 200.580043 301.804038 
L 217.034588 311.007554 
L 233.489134 323.229433 
L 249.943679 329.007544 
L 266.398224 349.936112 
L 282.85277 369.397843 
L 299.307315 397.926382 
L 315.761861 390.756733 
L 332.216406 402.952132 
L 348.670952 410.719586 
L 365.125497 403.391384 
L 381.580043 416.164813 
L 398.034588 429.464163 
L 414.489134 434.570222 
L 430.943679 429.351777 
L 447.398224 429.858412 
L 463.85277 445.443972 
L 480.307315 444.296001 
L 496.761861 464.528779 
L 513.216406 466.564787 
L 529.670952 465.595181 
L 546.125497 473.828451 
L 562.580043 479.932576 
L 579.034588 484.514913 
L 595.489134 483.329707 
L 611.943679 480.723706 
L 628.398224 453.56567 
L 644.85277 403.231384 
L 661.307315 420.204008 
L 677.761861 426.879735 
L 694.216406 440.952016 
L 710.670952 440.395138 
L 727.125497 448.607976 
L 743.580043 438.061919 
L 760.034588 434.965424 
L 776.489134 443.612552 
L 792.943679 438.955488 
L 809.398224 387.141195 
L 825.85277 413.914277 
L 842.307315 438.135266 
L 858.761861 458.722013 
L 875.216406 475.668657 
L 891.670952 488.790899 
L 908.125497 487.779022 
L 924.580043 492.255762 
L 941.034588 478.502912 
L 957.489134 481.097337 
L 973.943679 490.9798 
L 990.398224 492.27711 
L 1006.85277 481.707845 
L 1023.307315 466.478936 
L 1039.761861 460.556971 
L 1056.216406 460.933712 
L 1072.670952 445.459369 
L 1089.125497 448.603381 
" style="fill:none;stroke:#3b4252;stroke-linecap:square;stroke-width:3;"/>
   </g>
   <g id="line2d_11">
    <path clip-path="url(#p726e8bb197)" d="M 118.307315 182.373304 
L 134.761861 181.574145 
L 151.216406 238.804118 
L 167.670952 291.23642 
L 184.125497 298.224557 
L 200.580043 297.512098 
L 217.034588 278.658486 
L 233.489134 253.503377 
L 249.943679 261.428633 
L 266.398224 290.339773 
L 282.85277 294.203237 
L 299.307315 313.744561 
L 315.761861 298.963502 
L 332.216406 314.165929 
L 348.670952 337.297699 
L 365.125497 353.505648 
L 381.580043 379.2551 
L 398.034588 391.820484 
L 414.489134 407.288385 
L 430.943679 411.156771 
L 447.398224 396.050474 
L 463.85277 385.924134 
L 480.307315 381.687867 
L 496.761861 386.929992 
L 513.216406 376.718668 
L 529.670952 358.651859 
L 546.125497 358.448189 
L 562.580043 348.147851 
L 579.034588 346.494224 
L 595.489134 350.858812 
L 611.943679 362.284221 
L 628.398224 363.628822 
L 644.85277 355.683831 
L 661.307315 362.756273 
L 677.761861 314.243876 
L 694.216406 319.56884 
L 710.670952 328.477609 
L 727.125497 334.929378 
L 743.580043 322.275413 
L 760.034588 315.472846 
L 776.489134 325.824534 
L 792.943679 314.655964 
L 809.398224 298.897291 
L 825.85277 315.188605 
L 842.307315 312.219454 
L 858.761861 308.553619 
L 875.216406 319.985991 
" style="fill:none;stroke:#81a1c1;stroke-linecap:square;stroke-width:3;"/>
   </g>
   <g id="line2d_12">
    <path clip-path="url(#p726e8bb197)" d="M 118.307315 530.6 
L 118.307315 7.2 
" style="fill:none;stroke:#808080;stroke-linecap:square;stroke-opacity:0.1;stroke-width:1.5;"/>
   </g>
   <g id="line2d_13">
    <path clip-path="url(#p726e8bb197)" d="M 299.307315 530.6 
L 299.307315 7.2 
" style="fill:none;stroke:#808080;stroke-linecap:square;stroke-opacity:0.1;stroke-width:1.5;"/>
   </g>
   <g id="line2d_14">
    <path clip-path="url(#p726e8bb197)" d="M 496.761861 530.6 
L 496.761861 7.2 
" style="fill:none;stroke:#808080;stroke-linecap:square;stroke-opacity:0.1;stroke-width:1.5;"/>
   </g>
   <g id="line2d_15">
    <path clip-path="url(#p726e8bb197)" d="M 694.216406 530.6 
L 694.216406 7.2 
" style="fill:none;stroke:#808080;stroke-linecap:square;stroke-opacity:0.1;stroke-width:1.5;"/>
   </g>
   <g id="line2d_16">
    <path clip-path="url(#p726e8bb197)" d="M 891.670952 530.6 
L 891.670952 7.2 
" style="fill:none;stroke:#808080;stroke-linecap:square;stroke-opacity:0.1;stroke-width:1.5;"/>
   </g>
   <g id="line2d_17">
    <path clip-path="url(#p726e8bb197)" d="M 1089.125497 530.6 
L 1089.125497 7.2 
" style="fill:none;stroke:#808080;stroke-linecap:square;stroke-opacity:0.1;stroke-width:1.5;"/>
   </g>
   <g id="line2d_18">
    <path clip-path="url(#p726e8bb197)" d="M 69.766406 381.057143 
L 1137.666406 381.057143 
" style="fill:none;stroke:#808080;stroke-linecap:square;stroke-opacity:0.1;stroke-width:1.5;"/>
   </g>
   <g id="line2d_19">
    <path clip-path="url(#p726e8bb197)" d="M 69.766406 231.514286 
L 1137.666406 231.514286 
" style="fill:none;stroke:#000000;stroke-linecap:square;stroke-width:0.7;"/>
   </g>
   <g id="line2d_20">
    <path clip-path="url(#p726e8bb197)" d="M 69.766406 81.971429 
L 1137.666406 81.971429 
" style="fill:none;stroke:#808080;stroke-linecap:square;stroke-opacity:0.1;stroke-width:1.5;"/>
   </g>
  </g>
 </g>
 <defs>
  <clipPath id="p726e8bb197">
   <rect height="523.4" width="1067.9" x="69.766406" y="7.2"/>
  </clipPath>
 </defs>
</svg>
